<?xml version="1.0" standalone="no"?>
<!DOCTYPE svg PUBLIC "-//W3C//DTD SVG 20010904//EN"
 "http://www.w3.org/TR/2001/REC-SVG-20010904/DTD/svg10.dtd">
<svg version="1.0" xmlns="http://www.w3.org/2000/svg"
 width="96.000000pt" height="40.000000pt" viewBox="0 0 96.000000 40.000000"
 preserveAspectRatio="xMidYMid meet">

<g transform="translate(0.000000,40.000000) scale(0.100000,-0.100000)"
fill="#49F500" stroke="none">
<path d="M280 210 c0 -53 4 -90 10 -90 6 0 10 37 10 90 0 53 -4 90 -10 90 -6
0 -10 -37 -10 -90z"/>
<path d="M560 210 c0 -53 4 -90 10 -90 6 0 10 14 10 30 l0 30 29 -32 c36 -40
51 -31 20 11 l-23 31 24 25 c33 36 16 44 -20 10 l-30 -29 0 52 c0 29 -4 52
-10 52 -6 0 -10 -37 -10 -90z"/>
<path d="M90 205 l0 -85 50 0 c28 0 50 5 50 10 0 6 -16 10 -35 10 -32 0 -35 2
-35 30 0 27 3 30 30 30 17 0 30 5 30 10 0 6 -13 10 -30 10 -25 0 -30 4 -30 25
0 22 4 25 35 25 19 0 35 5 35 10 0 6 -22 10 -50 10 l-50 0 0 -85z"/>
<path d="M220 280 c0 -5 5 -10 10 -10 6 0 10 5 10 10 0 6 -4 10 -10 10 -5 0
-10 -4 -10 -10z"/>
<path d="M680 280 c0 -5 5 -10 10 -10 6 0 10 5 10 10 0 6 -4 10 -10 10 -5 0
-10 -4 -10 -10z"/>
<path d="M463 255 c-6 -14 -7 -27 -2 -31 5 -3 9 -20 9 -39 0 -18 3 -40 6 -49
7 -17 54 -22 54 -6 0 6 -7 10 -15 10 -11 0 -15 11 -15 40 0 29 4 40 15 40 8 0
15 7 15 15 0 8 -6 15 -14 15 -8 0 -16 7 -20 15 -8 22 -19 18 -33 -10z"/>
<path d="M220 185 c0 -37 4 -65 10 -65 6 0 10 28 10 65 0 37 -4 65 -10 65 -6
0 -10 -28 -10 -65z"/>
<path d="M353 243 c-22 -8 -14 -26 8 -20 27 7 49 -1 49 -19 0 -9 -11 -14 -30
-14 -19 0 -33 -7 -40 -21 -17 -30 4 -49 51 -47 l39 1 0 52 c0 28 -5 56 -12 63
-12 12 -43 15 -65 5z m53 -92 c-10 -16 -46 -13 -46 3 0 16 30 27 44 15 4 -4 5
-12 2 -18z"/>
<path d="M680 185 c0 -37 4 -65 10 -65 6 0 10 28 10 65 0 37 -4 65 -10 65 -6
0 -10 -28 -10 -65z"/>
<path d="M740 185 c0 -37 4 -65 10 -65 6 0 10 20 10 45 0 33 5 47 18 54 27 15
42 -5 42 -56 0 -24 5 -43 10 -43 6 0 10 25 10 55 0 44 -4 56 -20 65 -14 8 -26
8 -40 0 -14 -7 -20 -7 -20 0 0 5 -4 10 -10 10 -6 0 -10 -28 -10 -65z"/>
</g>
</svg>
